<?xml version="1.0" encoding="UTF-8" standalone="no"?>
<!-- Created with Inkscape (http://www.inkscape.org/) -->

<svg
   xmlns:dc="http://purl.org/dc/elements/1.1/"
   xmlns:cc="http://creativecommons.org/ns#"
   xmlns:rdf="http://www.w3.org/1999/02/22-rdf-syntax-ns#"
   xmlns:svg="http://www.w3.org/2000/svg"
   xmlns="http://www.w3.org/2000/svg"
   xmlns:sodipodi="http://sodipodi.sourceforge.net/DTD/sodipodi-0.dtd"
   xmlns:inkscape="http://www.inkscape.org/namespaces/inkscape"
   version="1.1"
   id="svg2"
   width="1090.6667"
   height="1549.3333"
   viewBox="0 0 1090.6667 1549.3333"
   sodipodi:docname="fedily.svg"
   inkscape:version="0.92.5 (2060ec1f9f, 2020-04-08)">
  <metadata
     id="metadata8">
    <rdf:RDF>
      <cc:Work
         rdf:about="">
        <dc:format>image/svg+xml</dc:format>
        <dc:type
           rdf:resource="http://purl.org/dc/dcmitype/StillImage" />
        <dc:title />
      </cc:Work>
    </rdf:RDF>
  </metadata>
  <defs
     id="defs6" />
  <sodipodi:namedview
     pagecolor="#ffffff"
     bordercolor="#666666"
     borderopacity="1"
     objecttolerance="10"
     gridtolerance="10"
     guidetolerance="10"
     inkscape:pageopacity="0"
     inkscape:pageshadow="2"
     inkscape:window-width="1680"
     inkscape:window-height="1020"
     id="namedview4"
     showgrid="false"
     inkscape:zoom="0.5"
     inkscape:cx="195.40774"
     inkscape:cy="545.59151"
     inkscape:window-x="0"
     inkscape:window-y="0"
     inkscape:window-maximized="1"
     inkscape:current-layer="svg2" />
  <g
     transform="matrix(3.441008,0,0,3.441008,-561.72496,-1927.0656)"
     id="g14-1-1" />
  <flowRoot
     xml:space="preserve"
     id="flowRoot1470"
     style="font-style:normal;font-variant:normal;font-weight:normal;font-stretch:normal;font-size:13.27999973px;line-height:1.25;font-family:FreeSerif;-inkscape-font-specification:'FreeSerif, Normal';font-variant-ligatures:normal;font-variant-caps:normal;font-variant-numeric:normal;font-feature-settings:normal;text-align:start;letter-spacing:0px;word-spacing:0px;writing-mode:lr-tb;text-anchor:start;fill:#502d16;fill-opacity:1;stroke:none"
     transform="matrix(1.5255474,0,0,1.6174056,-1784.0881,207.67432)"><flowRegion
       id="flowRegion1472"
       style="fill:#502d16"><rect
         id="rect1474"
         width="680"
         height="212"
         x="1528"
         y="473.33325"
         style="fill:#502d16" /></flowRegion><flowPara
       id="flowPara1476"
       style="font-style:normal;font-variant:normal;font-weight:normal;font-stretch:normal;font-size:85.33333588px;font-family:Nonchalance;-inkscape-font-specification:Nonchalance;font-variant-ligatures:normal;font-variant-caps:normal;font-variant-numeric:normal;font-feature-settings:normal;text-align:start;writing-mode:lr-tb;text-anchor:start;fill:#502d16">Fedily</flowPara></flowRoot>  <path
     style="fill:#2b0000;stroke-width:1.33333337"
     d="m 301.22153,312.96415 22.1009,-38.2731 -44.5876,-0.3513 c -24.5231,-0.1932 -44.8478,-0.091 -45.166,0.2272 -0.3182,0.3182 9.4912,18.0088 21.7986,39.3125 12.3073,21.3038 22.6867,38.4244 23.0651,38.0459 0.3785,-0.3784 10.6336,-17.9109 22.789,-38.9612 z"
     id="path1582"
     inkscape:connector-curvature="0" />
  <path
     style="fill:#2b0000;stroke-width:1.33333337"
     d="m 268.80653,349.02445 c -28.1128,-49.0364 -42.6786,-74.4011 -42.8696,-74.6529 -0.1334,-0.1758 -1.2256,0.4242 -2.4271,1.3333 -1.9462,1.4724 -0.02,5.3655 17.6378,35.6529 13.6808,23.4655 20.9977,34.7208 23.6154,36.3263 4.2142,2.5849 4.8843,2.8069 4.0435,1.3404 z"
     id="path1580"
     inkscape:connector-curvature="0" />
  <path
     style="fill:#2b0000;stroke-width:1.33333337"
     d="m 329.44353,325.90825 c 22.9784,-13.2637 42.2613,-24.5762 42.851,-25.1386 1.0036,-0.9574 -38.9348,-25.4119 -41.5019,-25.4119 -0.6498,0 -10.0725,15.45 -20.9393,34.3333 -10.8668,18.8834 -20.6233,35.6834 -21.6811,37.3334 -1.0577,1.65 -1.6047,3 -1.2154,3 0.3893,0 19.5083,-10.8523 42.4867,-24.1162 z"
     id="path1578"
     inkscape:connector-curvature="0" />
  <path
     style="fill:#2b0000;stroke-width:1.33333337"
     d="m 247.86363,334.35775 c -1.6255,-2.75 -9.2702,-15.95 -16.9882,-29.3333 -7.718,-13.3834 -14.4842,-24.3334 -15.036,-24.3334 -2.4535,0 -33.3355,19.1425 -32.3668,20.0629 1.1315,1.075 66.0693,38.5314 66.8815,38.5774 0.2558,0.015 -0.8649,-2.2236 -2.4905,-4.9736 z"
     id="path1576"
     inkscape:connector-curvature="0" />
  <path
     style="fill:#2b0000;stroke-width:1.33333337"
     d="m 323.88913,267.62445 c 0,-3.905 -3.9184,-4.2667 -46.2198,-4.2667 -41.6551,0 -43.065,0.084 -44.4469,2.6667 -1.4143,2.6427 -1.014,2.6666 44.6198,2.6666 25.3258,0 46.0469,-0.48 46.0469,-1.0666 z"
     id="path1570"
     inkscape:connector-curvature="0" />
  <path
     style="fill:#2b0000;stroke-width:1.33333337"
     d="m 249.73813,225.60525 c 12.1831,-21.1306 22.151,-38.7204 22.151,-39.08859 0,-0.3681 -1.5685,-0.4795 -3.4855,-0.2475 -3.0467,0.3688 -6.0808,4.98389 -24.0995,36.65689 -18.2291,32.0428 -20.4358,36.5681 -19.0732,39.1142 0.8475,1.5836 1.7244,2.6778 1.9486,2.4317 0.2242,-0.2461 10.3756,-17.7362 22.5586,-38.8667 z"
     id="path1568"
     inkscape:connector-curvature="0" />
  <path
     style="fill:#2b0000;stroke-width:1.33333337"
     d="m 315.74233,253.69105 c -3.2932,-6.277 -36.1869,-63.049 -37.1057,-64.0417 -0.5304,-0.5729 -8.4928,12.0271 -17.6944,28 -9.2016,15.973 -18.0621,31.2917 -19.69,34.0417 l -2.9598,5 h 39.5119 39.5119 z"
     id="path1566"
     inkscape:connector-curvature="0" />
  <path
     style="fill:#2b0000;stroke-width:1.33333337"
     d="m 354.01503,221.66475 20.126,-34.97369 -22.4593,-0.3648 c -12.3526,-0.2006 -32.649,-0.2006 -45.103,0 l -22.6437,0.3648 20.1656,34.99999 20.1657,35 4.8114,-0.026 4.8114,-0.026 20.1259,-34.9736 z"
     id="path1564"
     inkscape:connector-curvature="0" />
  <path
     style="fill:#2b0000;stroke-width:1.33333337"
     d="m 239.68963,219.27975 18.5335,-32.58869 -37.3681,-0.3544 c -20.5525,-0.1949 -37.635,-0.088 -37.961,0.2385 -0.3261,0.32609 6.6193,13.12479 15.4342,28.44159 21.1944,36.8275 21.8155,37.8642 22.3598,37.3199 0.2575,-0.2575 8.8083,-15.1331 19.0016,-33.0569 z"
     id="path1562"
     inkscape:connector-curvature="0" />
  <path
     style="fill:#2b0000;stroke-width:1.33333337"
     d="m 268.36403,175.96335 6.1917,-4.7277 v -20.7144 -20.7143 l -4.3333,2.6549 c -2.3833,1.4602 -21.7333,12.6771 -43,24.9264 -21.2666,12.2493 -38.9166,22.50351 -39.2222,22.78711 -0.3055,0.2837 16.2582,0.5157 36.8083,0.5157 h 37.3638 z"
     id="path1560"
     inkscape:connector-curvature="0" />
  <path
     style="fill:#2b0000;stroke-width:1.33333337"
     d="m 364.55573,178.02445 c -3.7653,-2.4937 -6.3269,-2.6496 -43.6666,-2.6579 -38.7807,-0.01 -39.6667,0.051 -39.6667,2.6579 0,2.61251 0.886,2.66651 43.6667,2.65791 l 43.6666,-0.01 -4,-2.64911 z"
     id="path1558"
     inkscape:connector-curvature="0" />
  <path
     style="fill:#2b0000;stroke-width:1.33333337"
     d="m 345.88913,167.09085 c -3.2355,-1.8433 -62.2547,-35.8042 -63.6667,-36.6353 -0.55,-0.3237 -1,8.1469 -1,18.8235 v 19.412 l 33.6667,-0.041 c 25.8781,-0.031 33.0497,-0.392 31,-1.5597 z"
     id="path90-5-8-0-9-8-0"
     inkscape:connector-curvature="0" />
  <path
     style="opacity:1;fill:#782121;fill-opacity:1;stroke:none;stroke-width:1.00157475;stroke-miterlimit:4;stroke-dasharray:none;stroke-opacity:1"
     d="m 279.48698,433.08036 a 186.36601,188.26698 0 0 0 -120.4688,43.1289 186.36601,188.26698 0 0 0 -30.8203,257.49219 186.36601,188.26698 0 0 0 252.9883,44.2343 186.36601,188.26698 0 0 0 56.6387,-252.97649 l -22.6738,-30.7949 a 186.36601,188.26698 0 0 0 -135.6641,-61.084 z m 3.7988,46.7696 c 0.215,0 2.0038,0.9537 5.0508,2.6836 3.047,1.7298 7.3518,4.2324 12.5977,7.3222 -5.246,-3.0897 -9.5507,-5.5924 -12.5977,-7.3222 -3.0442,-1.7282 -4.833,-2.685 -5.0508,-2.6836 z m -0.4531,0.1797 c -0.7375,0.3527 -2.318,1.2182 -4.6055,2.5175 2.2891,-1.3002 3.8677,-2.1647 4.6055,-2.5175 z m -4.6074,2.5195 c -3.0521,1.7337 -7.3642,4.2386 -12.6192,7.3301 -10.5099,6.183 -24.7904,14.7085 -40.3066,24.0839 15.5162,-9.3754 29.7966,-17.9009 40.3066,-24.0839 5.2539,-3.0909 9.5672,-5.5964 12.6192,-7.3301 z m 1.2988,6.2285 v 23.8203 23.8184 l -6.8047,5.4375 -6.8086,5.4375 h -41.0664 c -22.5874,0 -40.7947,-0.2675 -40.459,-0.5938 0.3359,-0.326 19.7366,-12.1177 43.1114,-26.2031 23.3752,-14.0855 44.644,-26.9849 47.2636,-28.6641 z m 8.3691,0.7402 c 0.019,-0.01 0.038,-0.01 0.057,0.01 1.552,0.9557 66.4204,40.0075 69.9765,42.127 2.2531,1.3427 -5.6286,1.7573 -34.0722,1.7929 l -37.0039,0.047 v -22.3203 c 0,-11.8933 0.4643,-21.4078 1.0429,-21.6524 z m 42.5567,51.6504 c 41.0414,0.012 43.8575,0.1871 47.9961,3.0547 l 4.3965,3.0449 -47.9961,0.012 c -47.0218,0.011 -47.9961,-0.053 -47.9961,-3.0567 0,-2.9977 0.9742,-3.0662 43.5996,-3.0547 z m -55.2559,12.4043 c 0.852,0.034 1.3965,0.1778 1.3965,0.416 0,0.4235 -10.9548,20.6514 -24.3457,44.9493 -13.3908,24.298 -24.5486,44.4064 -24.7949,44.6894 -0.2465,0.2829 -1.2112,-0.974 -2.1426,-2.7949 -1.4978,-2.9277 0.9285,-8.1306 20.9649,-44.9766 19.8049,-36.4207 23.1394,-41.7263 26.4882,-42.1504 0.5269,-0.067 1.0304,-0.1102 1.4883,-0.1289 0.3435,-0.013 0.6614,-0.016 0.9453,0 z m 64.3555,0.021 v 0 c 8.9853,0 17.9575,0.059 24.7461,0.1738 l 24.6836,0.42 -22.1192,40.2148 -22.123,40.2149 -5.2871,0.027 -5.2871,0.031 -22.166,-40.246 -22.1641,-40.2461 24.8887,-0.42 c 6.8443,-0.1153 15.8428,-0.1738 24.8281,-0.1738 z m -135.0508,0.084 c 4.9426,0.013 10.3525,0.047 16,0.1035 l 41.0723,0.4082 -20.3711,37.4727 c -11.2038,20.6105 -20.5998,37.7156 -20.8828,38.0117 -0.5983,0.6257 -1.2826,-0.5661 -24.5781,-42.9141 -9.689,-17.6127 -17.3233,-32.3302 -16.9649,-32.7051 0.2677,-0.2816 10.8969,-0.4191 25.7246,-0.3769 z m 79.4317,3.8945 c 0.034,-0.012 0.06,-4e-4 0.078,0.018 1.01,1.1417 37.1636,66.4266 40.7832,73.6445 l 1.7305,3.4493 h -43.4278 -43.4297 l 3.252,-5.75 c 1.7893,-3.1623 11.5306,-20.7792 21.6445,-39.1465 9.7977,-17.7933 18.3163,-31.9467 19.3692,-32.2149 z m -114.7774,8.9414 c 6e-4,-2e-4 0,2e-4 0,0 -0.02,0.01 -0.039,0.028 -0.059,0.061 0.019,-0.033 0.037,-0.053 0.057,-0.061 z m 113.793,75.834 c 46.4951,0 50.8008,0.4175 50.8008,4.9082 0,0.6742 -22.7749,1.2266 -50.6114,1.2266 -50.1577,0 -50.5973,-0.03 -49.0429,-3.0684 1.519,-2.9698 3.0688,-3.0664 48.8535,-3.0664 z m 62.6992,7.5957 c 0.014,0.072 0.037,0.1312 0.068,0.1797 -0.032,-0.049 -0.054,-0.1075 -0.068,-0.1797 z m -92.8008,4.9278 c 3.6733,-0.011 7.7756,-0.011 12.1934,0 5.8901,0.015 12.3396,0.049 19.0781,0.1054 l 49.0078,0.4043 -24.291,44.00779 c -13.3604,24.2057 -24.631,44.3695 -25.0469,44.8047 -0.416,0.4353 -11.826,-19.2528 -25.3535,-43.75 -13.5275,-24.4971 -24.3106,-44.83909 -23.9609,-45.20509 0.1966,-0.2059 7.3531,-0.3346 18.373,-0.3671 z m 97.2344,5.1386 c 2.8216,0 37.9761,24.25849 36.873,25.35939 -0.6481,0.6468 -23.7864,11.621 -49.0429,26.873 -25.2564,15.2521 -30.4841,20.0059 -30.9121,20.0059 8.4748,-16.495 14.2465,-22.226 20.0664,-32.7578 11.9441,-21.7139 22.3014,-39.48049 23.0156,-39.48049 z m -135.0938,2.2715 c 0.6065,0 8.0443,12.58889 16.5274,27.97849 8.4831,15.3894 16.8853,30.5682 18.6719,33.7305 -23.3231,-12.5431 -56.4929,-29.815 -70.7735,-38.6406 -1.0647,-1.0583 32.8774,-23.06839 35.5742,-23.06839 z m 187.625,36.34569 c 1.0516,-0.015 2.124,-0.014 3.2188,0 -2.1895,-0.035 -4.2909,0 -6.3125,0.09 1.0114,-0.047 2.0415,-0.079 3.0937,-0.094 z m 10.0704,0.3145 c 2.3784,0.1732 4.856,0.4182 7.4414,0.7402 -2.5854,-0.322 -5.063,-0.567 -7.4414,-0.7402 z m -24.4297,1.0351 c -2.6167,0.4774 -5.0998,1.07 -7.4805,1.7598 2.3812,-0.69 4.8631,-1.2824 7.4805,-1.7598 z m -225.3672,1.2481 c 2.3005,0.01 4.4703,0.056 6.5273,0.1386 -2.057,-0.082 -4.2269,-0.1288 -6.5273,-0.1386 z m -3.5508,0.012 c -4.8699,0.052 -10.2939,0.2498 -16.4102,0.5879 6.1155,-0.3381 11.5408,-0.5355 16.4102,-0.5879 z m 15.9277,0.4844 c 1.8477,0.1558 3.5991,0.3484 5.2715,0.5781 -1.6724,-0.2296 -3.4238,-0.4224 -5.2715,-0.5781 z m 200.8731,1.5195 c -1.5069,0.5416 -2.9782,1.1216 -4.4238,1.7344 1.4455,-0.6128 2.917,-1.1928 4.4238,-1.7344 z m -6.5742,2.6777 c -3.5557,1.6114 -6.9797,3.4128 -10.4258,5.3242 3.4461,-1.9114 6.8702,-3.7128 10.4258,-5.3242 z"
     id="path1682-0-4-4-8"
     inkscape:connector-curvature="0" />
  <path
     style="opacity:1;fill:#782121;fill-opacity:1;stroke:none;stroke-width:1.00157475;stroke-miterlimit:4;stroke-dasharray:none;stroke-opacity:1"
     d="m 275.2477,887.99599 c -43.9333,-0.418 -86.6003,14.8571 -120.4687,43.1289 -76.494104,63.8543 -90.044204,177.06021 -30.8204,257.49221 59.2236,80.4328 170.4497,99.8805 252.9883,44.2344 82.5373,-55.6458 107.4383,-166.866 56.6387,-252.97661 l -22.6738,-30.7949 c -34.8889,-38.4722 -84.0176,-60.5928 -135.6641,-61.084 z m 103.3555,114.18751 6.1367,6.9199 -22.1191,40.2149 c -11.107,20.5455 -22.5393,40.6075 -33.795,60.9765 h 0.059 l -24.291,44.0078 c -7.0712,12.8113 -13.4147,24.232 -18.0156,32.4531 l -7.0488,12.7559 -1.293,-2.1758 c -3.3163,-5.1092 -12.9096,-21.8168 -24.043,-41.9785 -5.1873,-9.3937 -9.6943,-17.7047 -13.6015,-24.9844 -10.6635,-18.6568 -20.5237,-36.7396 -30.9082,-55.3301 l -6.0743,-11.3886 c -3.1948,-5.7849 -6.9179,-12.5431 -12.1093,-21.9805 -9.109,-16.5582 -16.3986,-30.552 -16.9414,-32.4805 l -0.1036,-0.1953 5.6582,-7.3867 1.1661,-0.709 c 2.2284,-1.42481 13.6003,-8.33291 27.7851,-16.91011 l 66.2207,-40.3008 c 3.294,-0.2228 2.6198,-0.1796 7.3884,-0.7287 19.3526,11.3832 67.6153,40.5211 95.9296,59.22091 z m -32.7637,112.7422 c 2.8216,0 37.9761,24.2585 36.8731,25.3594 -0.6481,0.6468 -23.7865,11.621 -49.043,26.873 -25.2564,15.2521 -30.4841,20.0059 -30.9121,20.0059 8.4748,-16.495 14.2465,-22.226 20.0664,-32.7578 11.9441,-21.7139 22.3014,-39.4805 23.0156,-39.4805 z m -135.0937,2.2715 c 0.6065,0 8.0442,12.5889 16.5273,27.9785 8.4831,15.3894 16.8853,30.5682 18.6719,33.7305 -23.3231,-12.5431 -56.4929,-29.8151 -70.7735,-38.6406 -1.0647,-1.0583 32.8775,-23.0684 35.5743,-23.0684 z m 187.625,36.3418 v 0 c -1.0518,0.016 -2.083,0.047 -3.0938,0.092 1.0114,-0.047 2.0416,-0.079 3.0938,-0.094 z"
     id="path1682-0-4-4-8-0"
     inkscape:connector-curvature="0"
     sodipodi:nodetypes="cccccccccccccccccccccccccccccscccsscccscccccc" />
  <g
     transform="translate(628.32077,-350.50007)"
     id="g14-2-7"
     style="fill:#28170b">
    <path
       style="fill:#28170b;stroke-width:1.33333337"
       d="m 337.58218,872.92261 -21,-12.13149 v -24.29948 c 0,-21.50083 0.0226,-21.49884 0.0253,-25.1468 1.69364,-1.13791 13.23118,-8.02992 23.7299,-14.05046 l 19.08857,-10.94641 21.27316,12.16444 21.27314,12.16444 -0.36172,25.35065 -0.36172,25.35067 -20.44902,11.86701 c -11.24698,6.52686 -20.84698,11.85395 -21.33334,11.83796 -0.48637,-0.016 -10.33431,-5.48821 -21.88431,-12.16053 z"
       id="path28-5-5"
       inkscape:connector-curvature="0"
       sodipodi:nodetypes="scscscccccscs" />
  </g>
  <path
     style="fill:#fff6d5;stroke-width:1.33333337"
     d="m 973.01207,511.80941 -14.5199,-8.43995 -0.3708,-17.3131 -0.3709,-17.31311 14.001,-8.16737 c 7.7006,-4.49207 14.7675,-8.16147 15.7042,-8.15422 0.9368,0.007 7.8532,3.62086 15.36993,8.03026 l 13.6667,8.01709 -0.016,17.63641 -0.016,17.6364 -7.6509,4.28111 c -4.208,2.3546 -10.71693,6.0688 -14.46433,8.25377 l -6.8135,3.97267 -14.5198,-8.43996 z m 16.2945,0.93241 c 0.8007,-1.28333 3.4023,-5.78333 5.7814,-10 l 4.3255,-7.66666 h -12.0226 -12.0225 l 5.5619,9.97124 c 3.0591,5.48417 5.8676,9.98417 6.2412,10 0.3736,0.0159 1.3344,-1.02124 2.1351,-2.30458 z m 15.51903,-5.60012 c 4.2167,-2.37661 7.3286,-4.8681 6.9155,-5.53665 -0.4132,-0.66853 -2.6109,-2.17719 -4.8838,-3.35255 -4.7852,-2.47449 -5.2333,-2.09244 -12.28993,10.47675 -3.8958,6.93919 -3.9008,6.97521 -0.6667,4.86228 1.792,-1.17079 6.70823,-4.07321 10.92493,-6.44983 z m -25.18803,0.26679 c -4.6251,-8.06107 -7.1454,-11.83564 -7.1454,-10.70144 0,1.30596 9.3443,17.03477 10.1201,17.03477 0.3625,0 -0.9762,-2.85 -2.9747,-6.33333 z m -5.4018,-2.99864 c -4.113,-7.32317 -4.9757,-7.71269 -9.4521,-4.26772 l -3.0419,2.341 7.0419,4.17699 c 3.873,2.29734 7.5265,4.23056 8.1188,4.29601 0.5923,0.0655 -0.6077,-2.88036 -2.6667,-6.54628 z m 40.90993,-17.66803 -0.013,-13.66666 -5.745,10 -5.745,10 5.4249,3.58108 c 2.9837,1.9696 5.5749,3.6196 5.7582,3.66666 0.1834,0.0471 0.3274,-6.06441 0.3201,-13.58108 z m -48.98683,9.7432 c 2.0167,-1.01085 3.6667,-2.71856 3.6667,-3.79492 0,-1.96984 -7.7042,-16.28161 -8.7645,-16.28161 -0.3129,0 -0.5689,5.15 -0.5689,11.44444 0,6.29445 0.45,11.2252 1,10.95723 0.55,-0.26799 2.65,-1.3143 4.6667,-2.32514 z m 14.2807,-17.7432 c 2.3689,-4.21666 4.0016,-7.66666 3.628,-7.66666 -0.6499,0 -10.4017,16.56678 -11.3803,19.33333 -0.8938,2.52685 3.455,-4.01781 7.7523,-11.66667 z m 13.8646,4.66667 c -6.1619,-10.73973 -6.6136,-11.26428 -8.0616,-9.36244 -1.9148,2.51483 -8.417,14.05089 -8.417,14.9332 0,0.41941 4.5253,0.76257 10.0562,0.76257 h 10.0562 z m 13.24433,-2.1178 c 2.7191,-4.64812 4.9438,-8.84812 4.9438,-9.33333 0,-0.48522 -5.0697,-0.8822 -11.2658,-0.8822 h -11.26593 l 5.3811,9.33333 c 2.9596,5.13333 5.80453,9.33333 6.32213,9.33333 0.5176,0 3.1657,-3.80301 5.8847,-8.45113 z m -31.16383,-2.21553 4.2639,-8 h -9.5018 -9.5017 l 4.398,8 c 2.4189,4.4 4.7759,8 5.2378,8 0.4619,0 2.7586,-3.6 5.1038,-8 z m 7.3318,-11.47599 c 1.4234,-0.54621 2.1091,-2.49676 2.1091,-6 0,-2.85487 -0.45,-5.18391 -1,-5.17564 -0.55,0.008 -5.5,2.70151 -11,5.98496 l -10,5.96991 8.8909,0.0151 c 4.8901,0.008 9.8401,-0.34914 11,-0.79428 z m 21.10913,-0.16696 c -3.1167,-0.28071 -8.21673,-0.28071 -11.33333,0 -3.1167,0.28072 -0.5667,0.5104 5.6666,0.5104 6.23343,0 8.78343,-0.22968 5.66673,-0.5104 z m 0.8889,-2.15733 c -0.3056,-0.25683 -4.3056,-2.63799 -8.88893,-5.29147 l -8.3333,-4.82452 v 5.29147 5.29146 h 8.8888 c 4.88893,0 8.63893,-0.21013 8.33343,-0.46694 z"
     id="path12-3-4"
     inkscape:connector-curvature="0"
     sodipodi:nodetypes="ccccccsccccscccccccccccscsscscssccccscccccccccccssscccsccscsscscsscssccccccsccscsccccccsccscccsc" />
  <flowRoot
     xml:space="preserve"
     id="flowRoot1470-1"
     style="font-style:normal;font-variant:normal;font-weight:normal;font-stretch:normal;font-size:13.27999973px;line-height:1.25;font-family:FreeSerif;-inkscape-font-specification:'FreeSerif, Normal';font-variant-ligatures:normal;font-variant-caps:normal;font-variant-numeric:normal;font-feature-settings:normal;text-align:start;letter-spacing:0px;word-spacing:0px;writing-mode:lr-tb;text-anchor:start;fill:#502d16;fill-opacity:1;stroke:none"
     transform="matrix(1.5255474,0,0,1.6174056,-1789.0672,-229.41569)"><flowRegion
       id="flowRegion1472-2"
       style="fill:#502d16"><rect
         id="rect1474-8"
         width="680"
         height="212"
         x="1528"
         y="473.33325"
         style="fill:#502d16" /></flowRegion><flowPara
       id="flowPara1476-9"
       style="font-style:normal;font-variant:normal;font-weight:normal;font-stretch:normal;font-size:85.33333588px;font-family:Nonchalance;-inkscape-font-specification:Nonchalance;font-variant-ligatures:normal;font-variant-caps:normal;font-variant-numeric:normal;font-feature-settings:normal;text-align:start;writing-mode:lr-tb;text-anchor:start;fill:#502d16">Fedily</flowPara></flowRoot>  <path
     style="opacity:1;fill:#782121;fill-opacity:1;stroke:none;stroke-width:0.20667247;stroke-miterlimit:4;stroke-dasharray:none;stroke-opacity:1"
     d="m 727.74276,581.4643 a 38.456169,38.84843 0 0 0 -24.8584,8.89955 38.456169,38.84843 0 0 0 -6.3597,53.13282 38.456169,38.84843 0 0 0 52.2036,9.1277 38.456169,38.84843 0 0 0 11.6871,-52.2011 l -4.6786,-6.35444 a 38.456169,38.84843 0 0 0 -27.994,-12.60453 z m 0.784,9.6508 c 0.045,0 0.4134,0.19678 1.0422,0.55374 0.6286,0.35695 1.517,0.87335 2.5994,1.51092 -1.0824,-0.63754 -1.9708,-1.15397 -2.5994,-1.51092 -0.6282,-0.35659 -0.9972,-0.55404 -1.0422,-0.55374 z m -0.093,0.0371 c -0.1525,0.0729 -0.4784,0.25136 -0.9506,0.51947 0.4724,-0.26829 0.7983,-0.44668 0.9506,-0.51947 z m -0.9509,0.51988 c -0.6297,0.35775 -1.5195,0.87463 -2.6039,1.51255 -2.1687,1.27584 -5.1154,3.03507 -8.3171,4.96966 3.2017,-1.93459 6.1484,-3.69382 8.3171,-4.96966 1.0841,-0.6378 1.9742,-1.1548 2.6039,-1.51255 z m 0.268,1.28524 v 4.91526 4.91489 l -1.4041,1.122 -1.4048,1.122 h -8.4742 c -4.6608,0 -8.4177,-0.055 -8.3484,-0.1226 0.069,-0.067 4.0724,-2.5004 8.8958,-5.4069 4.8235,-2.9065 9.2123,-5.56827 9.7528,-5.91477 z m 1.727,0.15271 c 0,-0.002 0,-0.002 0.016,0.002 0.3202,0.19721 13.7057,8.25544 14.4394,8.69284 0.4651,0.277 -1.1614,0.3626 -7.0307,0.3699 l -7.6356,0.01 v -4.60652 c 0,-2.45415 0.096,-4.41743 0.2153,-4.46792 z m 8.7816,10.65794 c 8.4688,0 9.0496,0.039 9.9037,0.6303 l 0.9073,0.6283 h -9.904 c -9.7029,0 -9.9037,-0.011 -9.9037,-0.6307 0,-0.6186 0.2008,-0.6327 8.9967,-0.6303 z m -11.4022,2.5596 c 0.1759,0.01 0.2883,0.037 0.2883,0.086 0,0.087 -2.2604,4.2614 -5.0237,9.2752 -2.7631,5.0138 -5.0656,9.1631 -5.1164,9.2215 -0.051,0.058 -0.2499,-0.201 -0.442,-0.5767 -0.3092,-0.6041 0.1915,-1.6777 4.326,-9.2808 4.0866,-7.5153 4.7747,-8.6101 5.4658,-8.6977 0.109,-0.014 0.2125,-0.023 0.3071,-0.027 0.071,0 0.1363,0 0.1949,0 z m 13.2796,0 v 0 c 1.8543,0 3.7056,0.013 5.1064,0.036 l 5.0935,0.087 -4.5643,8.2982 -4.5651,8.2982 h -1.091 l -1.0908,0.01 -4.5741,-8.3046 -4.5734,-8.3047 5.1357,-0.087 c 1.4123,-0.024 3.2692,-0.036 5.1231,-0.036 z m -27.8672,0.017 c 1.0198,0 2.136,0.01 3.3014,0.021 l 8.4752,0.084 -4.2034,7.7324 c -2.3121,4.2529 -4.2507,7.7825 -4.3092,7.8436 -0.1234,0.1291 -0.2646,-0.1168 -5.0716,-8.8552 -1.9993,-3.6343 -3.5746,-6.6713 -3.5007,-6.7486 0.054,-0.058 2.2486,-0.087 5.3083,-0.078 z m 16.3906,0.8036 c 0,0 0.016,-1e-4 0.016,0 0.2085,0.2356 7.6687,13.707 8.4156,15.1964 l 0.357,0.7117 h -8.9612 -8.9616 l 0.671,-1.1865 c 0.3692,-0.6525 2.3794,-4.2877 4.4663,-8.0777 2.0219,-3.6716 3.7796,-6.5922 3.9969,-6.6475 z m -23.6841,1.845 c 10e-5,0 0,1e-4 0,0 0,0 -0.016,0.01 -0.016,0.013 0,-0.01 0,-0.011 0.016,-0.013 z m 23.4808,15.6482 c 9.5942,0 10.4827,0.086 10.4827,1.0128 0,0.1391 -4.6996,0.2531 -10.4436,0.2531 -10.35,0 -10.4407,-0.01 -10.1198,-0.6332 0.3134,-0.6128 0.6332,-0.6327 10.0807,-0.6327 z m 12.9379,1.5674 c 0,0.014 0,0.027 0.016,0.037 0,-0.011 -0.016,-0.022 -0.016,-0.037 z m -19.1493,1.0168 c 0.7579,0 1.6046,0 2.5162,0 1.2153,0 2.5461,0.01 3.9366,0.022 l 10.1126,0.083 -5.0123,9.0809 c -2.7569,4.9948 -5.0825,9.1555 -5.1684,9.2453 -0.087,0.09 -2.4402,-3.9727 -5.2317,-9.0277 -2.7913,-5.0549 -5.0162,-9.2524 -4.9443,-9.3279 0.04,-0.043 1.5174,-0.069 3.7913,-0.076 z m 20.0641,1.0603 c 0.5822,0 7.8363,5.0057 7.6088,5.2329 -0.1332,0.1334 -4.9084,2.3979 -10.12,5.5451 -5.2117,3.1473 -6.2904,4.1282 -6.3786,4.1282 1.7487,-3.4037 2.9396,-4.5863 4.1407,-6.7595 2.4646,-4.4806 4.6017,-8.1467 4.7491,-8.1467 z m -27.8763,0.4687 c 0.1251,0 1.66,2.5977 3.4104,5.7733 1.7506,3.1756 3.4843,6.3077 3.853,6.9603 -4.8126,-2.5883 -11.6572,-6.1523 -14.6041,-7.9734 -0.2196,-0.2184 6.7842,-4.7602 7.3407,-4.7602 z m 38.716,7.4999 c 0.217,0 0.4384,0 0.6642,0 -0.4518,-0.01 -0.8855,0 -1.3025,0.019 0.2087,-0.011 0.4212,-0.016 0.6383,-0.019 z m 2.078,0.065 c 0.4908,0.036 1.002,0.086 1.5355,0.1527 -0.5335,-0.066 -1.0447,-0.1169 -1.5355,-0.1527 z m -5.041,0.2136 c -0.5399,0.098 -1.0524,0.2208 -1.5436,0.3631 0.4914,-0.1424 1.0036,-0.2646 1.5436,-0.3631 z m -46.504,0.2575 c 0.4747,0 0.9224,0.011 1.3469,0.029 -0.4245,-0.017 -0.8722,-0.027 -1.3469,-0.029 z m -0.7326,0 c -1.0049,0.011 -2.1243,0.052 -3.3863,0.1213 1.2619,-0.07 2.3814,-0.1105 3.3863,-0.1213 z m 3.2865,0.1 c 0.3814,0.032 0.7427,0.072 1.0877,0.1194 -0.345,-0.047 -0.7063,-0.087 -1.0877,-0.1194 z m 41.4497,0.3136 c -0.3109,0.1118 -0.6146,0.2314 -0.9127,0.3579 0.2981,-0.1264 0.6018,-0.2462 0.9127,-0.3579 z m -1.3566,0.5525 c -0.7337,0.3325 -1.4402,0.7042 -2.1512,1.0987 0.711,-0.3945 1.4175,-0.7662 2.1512,-1.0987 z"
     id="path1682-0-4-4-8-6-3"
     inkscape:connector-curvature="0" />
  <g
     aria-label="Fedily"
     transform="matrix(1.5255474,0,0,1.6174056,-1784.6652,364.70206)"
     style="font-style:normal;font-variant:normal;font-weight:normal;font-stretch:normal;font-size:13.27999973px;line-height:1.25;font-family:FreeSerif;-inkscape-font-specification:'FreeSerif, Normal';font-variant-ligatures:normal;font-variant-caps:normal;font-variant-numeric:normal;font-feature-settings:normal;text-align:start;letter-spacing:0px;word-spacing:0px;writing-mode:lr-tb;text-anchor:start;fill:#502d16;fill-opacity:1;stroke:none"
     id="flowRoot1470-0">
    <path
       id="path67"
       style="font-style:normal;font-variant:normal;font-weight:normal;font-stretch:normal;font-size:85.33333588px;font-family:Nonchalance;-inkscape-font-specification:Nonchalance;font-variant-ligatures:normal;font-variant-caps:normal;font-variant-numeric:normal;font-feature-settings:normal;text-align:start;writing-mode:lr-tb;text-anchor:start;fill:#502d16"
       d="m 1798,538.40241 q -1.75,3.08333 -4.4583,5.79166 -7.8334,7.83334 -18.875,7.83334 -11.0417,0 -18.875,-7.79167 Q 1748,536.40241 1748,525.36074 v -25 h 3.3333 v 25 q 0,9.66667 6.8334,16.5 6.8333,6.83333 16.5,6.83333 9.6666,0 16.5,-6.83333 6.8333,-6.83333 6.8333,-16.5 v -25 h 3.3333 v 50.29167 q 0,7.16666 -3.5833,13.33333 l -2.875,-1.66667 Q 1798,556.90241 1798,550.65241 Z m -75,11.95833 v -60 h 3.3333 v 60 z m -21.6667,-50 v 50 H 1698 v -50 z m -1.6666,-12.5 q 1.0416,0 1.75,0.75 0.75,0.70833 0.75,1.75 0,1.04167 -0.75,1.79167 -0.7084,0.70833 -1.75,0.70833 -1.0417,0 -1.75,-0.70833 -0.75,-0.75 -0.75,-1.79167 0,-1.04167 0.75,-1.75 0.7083,-0.75 1.75,-0.75 z m -50,60.83333 q 9.6666,0 16.5,-6.83333 6.8333,-6.83333 6.8333,-16.5 0,-9.66667 -6.8333,-16.5 -6.8334,-6.83333 -16.5,-6.83333 -9.6667,0 -16.5,6.83333 -6.8334,6.83333 -6.8334,16.5 0,9.66667 6.8334,16.5 6.8333,6.83333 16.5,6.83333 z M 1673,490.36074 h 3.3333 v 35 q 0,11.04167 -7.8333,18.875 -7.7917,7.79167 -18.8333,7.79167 -11.0417,0 -18.875,-7.79167 -7.7917,-7.83333 -7.7917,-18.875 0,-11.04167 7.7917,-18.83333 7.8333,-7.83334 18.875,-7.83334 11.0416,0 18.875,7.79167 2.7083,2.75 4.4583,5.83333 z m -95,11.66667 q -8.75,0 -15.3333,5.75 -6.5417,5.70833 -7.75,14.25 h 46.1666 q -1.2083,-8.54167 -7.75,-14.25 -6.5833,-5.75 -15.3333,-5.75 z m 0,46.66666 q 8,0 14.3333,-4.91666 6.1667,-4.83334 8.2084,-12.375 l 3.2083,0.875 q -2.2917,8.625 -9.375,14.125 -7.2083,5.625 -16.375,5.625 -11.0417,0 -18.875,-7.79167 -7.7917,-7.83333 -7.7917,-18.875 0,-1.66667 0.2084,-3.33333 1.25,-9.91667 8.75,-16.58334 7.5833,-6.75 17.7083,-6.75 10.125,0 17.7083,6.75 7.5,6.66667 8.75,16.58334 0.2084,1.66666 0.2084,3.33333 h -50 q 0,9.66667 6.8333,16.5 6.8333,6.83333 16.5,6.83333 z m -46.6667,-39.625 4.7084,-2.70833 1.6666,2.875 -6.375,3.70833 v 37.41667 H 1528 v -35.5 l -4.7083,2.70833 -1.6667,-2.875 6.375,-3.66666 v -7.375 q 0,-5.54167 3.9167,-9.41667 3.9166,-3.91667 9.4166,-3.91667 v 3.33334 q -4.125,0 -7.0416,2.91666 -2.9584,2.91667 -2.9584,7.08334 z" />
  </g>
  <path
     style="font-style:normal;font-variant:normal;font-weight:normal;font-stretch:normal;font-size:13.27999973px;line-height:1.25;font-family:FreeSerif;-inkscape-font-specification:'FreeSerif, Normal';font-variant-ligatures:normal;font-variant-caps:normal;font-variant-numeric:normal;font-feature-settings:normal;text-align:start;letter-spacing:0px;word-spacing:0px;writing-mode:lr-tb;text-anchor:start;fill:#502d16;fill-opacity:1;stroke:none;stroke-width:1.57080519"
     d="m 804.96108,698.63867 c -1.05941,0 -1.94952,0.40614 -2.66992,1.21485 -0.76277,0.76377 -1.14258,1.70688 -1.14258,2.83007 0,1.1232 0.37981,2.08779 1.14258,2.89649 0.7204,0.76377 1.61051,1.14648 2.66992,1.14648 1.05941,0 1.94953,-0.38271 2.66992,-1.14648 0.76278,-0.8087 1.14453,-1.77329 1.14453,-2.89649 0,-1.12319 -0.38175,-2.0663 -1.14453,-2.83007 -0.72039,-0.80871 -1.61051,-1.21485 -2.66992,-1.21485 z m -241.54492,3.97656 c -5.59368,0 -10.38186,2.11272 -14.36524,6.33594 -3.98337,4.1783 -5.9746,9.25506 -5.9746,15.23047 v 11.92774 l -9.72657,5.92968 2.54297,4.65039 7.1836,-4.38086 v 57.41797 h 5.08398 v -60.51758 l 9.72656,-5.99804 -2.54297,-4.64844 -7.18359,4.37891 v -8.75977 c 0,-4.49279 1.50495,-8.31208 4.51367,-11.45703 2.96634,-3.14496 6.54693,-4.7168 10.74219,-4.7168 z m 200.86328,0.0684 v 35.51563 c -1.77981,-3.32467 -4.04632,-6.4703 -6.80078,-9.43555 -7.96675,-8.40152 -17.5652,-12.60156 -28.79492,-12.60156 -11.22973,0 -20.82818,4.22347 -28.79492,12.66992 -7.92438,8.40153 -11.88672,18.55504 -11.88672,30.46094 0,11.9059 3.96234,22.08089 11.88672,30.52734 7.96674,8.40153 17.56519,12.60352 28.79492,12.60352 11.22972,0 20.80805,-4.20199 28.73242,-12.60352 7.96675,-8.44645 11.94922,-18.62144 11.94922,-30.52734 v -56.60938 z m 76.27734,0 v 97.04297 h 5.08594 v -97.04297 z m -221.20312,13.47852 c -10.29745,0 -19.30314,3.63769 -27.01563,10.91601 -7.62773,7.18847 -12.07636,16.12942 -13.34765,26.82227 -0.21188,1.79712 -0.31836,3.59546 -0.31836,5.39258 0,11.9059 3.96235,22.08089 11.88672,30.52734 7.96674,8.40153 17.56519,12.60352 28.79492,12.60352 9.32279,0 17.64936,-3.03239 24.98047,-9.09766 7.20397,-5.93049 11.97203,-13.54757 14.30273,-22.84765 l -4.89453,-1.41407 c -2.07644,8.13196 -6.25174,14.80399 -12.52344,20.01563 -6.4412,5.30149 -13.72898,7.95117 -21.86523,7.95117 -9.83131,0 -18.22216,-3.68455 -25.17188,-11.05273 -6.94971,-7.36819 -10.42382,-16.26227 -10.42382,-26.68555 h 76.27734 c 0,-1.79712 -0.10648,-3.59546 -0.31836,-5.39258 -1.27129,-10.69285 -5.72187,-19.6338 -13.34961,-26.82227 -7.71249,-7.27832 -16.71623,-10.91601 -27.01367,-10.91601 z m 183.06445,2.69531 v 80.86914 h 5.08594 v -80.86914 z m 76.27735,0 v 40.43555 c 0,11.9059 3.96234,22.08089 11.88671,30.52734 7.96675,8.40153 17.5652,12.60352 28.79493,12.60352 11.22972,0 20.82817,-4.22347 28.79492,-12.66992 2.75446,-2.92032 5.02097,-6.04252 6.80078,-9.36719 v 19.8125 c 0,6.73919 -1.5874,13.02851 -4.76563,18.86914 l 4.38477,2.69531 c 3.64436,-6.64933 5.4668,-13.83685 5.4668,-21.56445 v -81.3418 h -5.08594 v 40.43555 c 0,10.42328 -3.47411,19.31736 -10.42383,26.68555 -6.94971,7.36818 -15.34057,11.05273 -25.17187,11.05273 -9.83131,0 -18.22216,-3.68455 -25.17188,-11.05273 -6.94971,-7.36819 -10.42383,-16.26227 -10.42383,-26.68555 v -40.43555 z m -259.3418,2.69531 c 8.89903,0 16.69517,3.10073 23.39062,9.30079 6.65309,6.15512 10.59531,13.83664 11.82422,23.04687 h -70.42968 c 1.22891,-9.21023 5.16918,-16.89175 11.82226,-23.04687 6.69546,-6.20006 14.49355,-9.30079 23.39258,-9.30079 z m 109.5039,10.39063 v 4.91602 4.91406 l -1.40429,1.12304 -1.4043,1.1211 h -8.47461 c -4.6608,0 -8.41695,-0.0554 -8.34765,-0.12305 0.069,-0.067 4.07113,-2.49975 8.89453,-5.40625 4.8235,-2.9065 9.2134,-5.56756 9.7539,-5.91406 z m 1.72657,0.15234 c 0,-0.002 -3.8e-4,-0.002 0.0156,0.002 0.3202,0.19721 13.70576,8.25596 14.43946,8.69336 0.4651,0.277 -1.16,0.36379 -7.0293,0.37109 l -7.63672,0.01 v -4.60743 c 0,-2.45415 0.0975,-4.4163 0.2168,-4.46679 z m 8.78125,10.65625 v 0.002 c 8.4688,0 9.05019,0.0396 9.90429,0.63086 l 0.90821,0.6289 h -9.9043 c -9.7029,0 -9.9043,-0.0112 -9.9043,-0.63086 0,-0.6186 0.2002,-0.63326 8.9961,-0.63086 z m 1.8789,2.5586 v 0.004 c 1.8543,0 3.70467,0.0122 5.10547,0.0352 l 5.09375,0.0879 -4.56445,8.29688 -4.56445,8.29882 h -1.0918 l -1.08984,0.01 -4.57422,-8.30469 -4.57422,-8.30469 5.13672,-0.0859 c 1.4123,-0.024 3.26914,-0.0371 5.12304,-0.0371 z m -13.47461,0.004 h 0.19532 c 0.1759,0.01 0.28711,0.0369 0.28711,0.0859 0,0.087 -2.26014,4.26159 -5.02344,9.27539 -2.7631,5.0138 -5.06639,9.1623 -5.11719,9.2207 -0.051,0.058 -0.24931,-0.20047 -0.44141,-0.57617 -0.3092,-0.6041 0.19168,-1.67815 4.32618,-9.28125 4.0866,-7.5153 4.77374,-8.60966 5.46484,-8.69726 0.109,-0.014 0.21399,-0.0234 0.30859,-0.0274 z m -14.39257,0.0156 v 0.002 c 1.0198,0 2.13538,0.009 3.30078,0.0195 l 8.47461,0.084 -4.20313,7.73242 c -2.3121,4.2529 -4.25009,7.78265 -4.30859,7.84375 -0.1234,0.1291 -0.26527,-0.11707 -5.07227,-8.85547 -1.9993,-3.6343 -3.5739,-6.67075 -3.5,-6.74805 0.054,-0.058 2.2489,-0.0871 5.3086,-0.0781 z m 16.39062,0.80078 v 0.004 c 0,0 0.0156,-10e-5 0.0156,0 0.2085,0.2356 7.66911,13.70786 8.41601,15.19726 l 0.35547,0.71094 h -8.96094 -8.96093 l 0.66992,-1.1875 c 0.3692,-0.6525 2.37989,-4.28617 4.46679,-8.07617 2.0219,-3.6716 3.78075,-6.59314 3.99805,-6.64844 z m -0.20312,17.49805 c 9.5942,0 10.48242,0.0849 10.48242,1.01171 0,0.1391 -4.69936,0.25391 -10.44336,0.25391 -10.35,0 -10.442,-0.0116 -10.1211,-0.63476 0.31341,-0.6128 0.63454,-0.63086 10.08204,-0.63086 z m -6.21289,2.58203 v 0.002 h 2.51757 c 1.2153,0 2.54505,0.009 3.93555,0.0215 l 10.11328,0.082 -5.01172,9.08203 c -2.7569,4.9948 -5.08402,9.15434 -5.16992,9.24414 -0.087,0.09 -2.43897,-3.97235 -5.23047,-9.02735 -2.7913,-5.0549 -5.01721,-9.25262 -4.94531,-9.32812 0.04,-0.043 1.51712,-0.0692 3.79102,-0.0762 z m 20.06445,1.06054 c 0.5822,0 7.83687,5.00718 7.60937,5.23438 -0.1332,0.1334 -4.90949,2.39772 -10.12109,5.54492 -5.2117,3.1473 -6.28875,4.12695 -6.37695,4.12695 1.7487,-3.4037 2.93952,-4.58461 4.14062,-6.75781 2.4646,-4.4806 4.60065,-8.14844 4.74805,-8.14844 z m -27.87695,0.46875 c 0.1251,0 1.66171,2.59784 3.41211,5.77344 1.75059,3.1756 3.48286,6.30834 3.85156,6.96094 -4.8126,-2.5883 -11.65662,-6.15156 -14.60352,-7.97266 -0.2196,-0.2184 6.78335,-4.76172 7.33985,-4.76172 z m 38.71679,7.5 h 0.66406 c -0.4518,-0.01 -0.88573,5.4e-4 -1.30273,0.0195 0.2087,-0.011 0.42157,-0.0165 0.63867,-0.0195 z"
     id="flowRoot1470-1-2"
     inkscape:connector-curvature="0" />
</svg>
