<?xml version="1.0" encoding="UTF-8" standalone="no"?>
<!-- Created with Inkscape (http://www.inkscape.org/) -->

<svg
   xmlns:dc="http://purl.org/dc/elements/1.1/"
   xmlns:cc="http://creativecommons.org/ns#"
   xmlns:rdf="http://www.w3.org/1999/02/22-rdf-syntax-ns#"
   xmlns:svg="http://www.w3.org/2000/svg"
   xmlns="http://www.w3.org/2000/svg"
   xmlns:sodipodi="http://sodipodi.sourceforge.net/DTD/sodipodi-0.dtd"
   xmlns:inkscape="http://www.inkscape.org/namespaces/inkscape"
   version="1.1"
   id="svg2"
   width="162mm"
   height="114mm"
   viewBox="0 0 612.28345 430.86616"
   sodipodi:docname="fedily_logo.svg"
   inkscape:version="0.92.5 (2060ec1f9f, 2020-04-08)">
  <metadata
     id="metadata8">
    <rdf:RDF>
      <cc:Work
         rdf:about="">
        <dc:format>image/svg+xml</dc:format>
        <dc:type
           rdf:resource="http://purl.org/dc/dcmitype/StillImage" />
        <dc:title />
      </cc:Work>
    </rdf:RDF>
  </metadata>
  <defs
     id="defs6" />
  <sodipodi:namedview
     pagecolor="#ffffff"
     bordercolor="#666666"
     borderopacity="1"
     objecttolerance="10"
     gridtolerance="10"
     guidetolerance="10"
     inkscape:pageopacity="0"
     inkscape:pageshadow="2"
     inkscape:window-width="1680"
     inkscape:window-height="1020"
     id="namedview4"
     showgrid="false"
     inkscape:zoom="2"
     inkscape:cx="345.45491"
     inkscape:cy="190.15386"
     inkscape:window-x="0"
     inkscape:window-y="0"
     inkscape:window-maximized="1"
     inkscape:current-layer="svg2"
     units="mm" />
  <g
     transform="matrix(3.441008,0,0,3.441008,-561.72496,-3045.5326)"
     id="g14-1-1" />
  <path
     style="opacity:1;fill:#782121;fill-opacity:1;stroke:none;stroke-width:0.58828574;stroke-miterlimit:4;stroke-dasharray:none;stroke-opacity:1"
     d="M 161.70178,97.603878 A 109.46409,110.58064 0 0 0 90.94314,122.9361 109.46409,110.58064 0 0 0 72.8405,274.17691 a 109.46409,110.58064 0 0 0 148.59541,25.9815 109.46409,110.58064 0 0 0 33.26735,-148.58847 l -13.3177,-18.08772 A 109.46409,110.58064 0 0 0 161.70178,97.603878 Z m 2.23127,27.470632 c 0.12628,0 1.17695,0.56016 2.96664,1.57624 1.78969,1.01601 4.31816,2.48594 7.39939,4.30077 -3.08129,-1.81477 -5.6097,-3.28476 -7.39939,-4.30077 -1.78804,-1.01508 -2.83871,-1.57707 -2.96664,-1.57624 z m -0.26614,0.10554 c -0.43317,0.20717 -1.3615,0.71553 -2.70509,1.47869 1.34453,-0.76369 2.27174,-1.27146 2.70509,-1.47869 z m -2.7062,1.47986 c -1.79269,1.01831 -4.32544,2.48959 -7.41202,4.30541 -6.17311,3.63166 -14.56091,8.6392 -23.67452,14.14594 9.11361,-5.50674 17.50135,-10.51428 23.67452,-14.14594 3.08593,-1.81547 5.61939,-3.2871 7.41202,-4.30541 z m 0.76286,3.65838 v 13.99111 13.98999 l -3.99681,3.19377 -3.99911,3.19378 h -24.12079 c -13.26695,0 -23.9612,-0.15712 -23.76403,-0.34878 0.1973,-0.19148 11.59251,-7.11746 25.32195,-15.39067 13.72967,-8.27327 26.22213,-15.84987 27.76078,-16.83617 z m 4.91568,0.43476 c 0.0112,-0.006 0.0223,-0.006 0.0335,0.006 0.91159,0.56134 39.01274,23.49884 41.10146,24.74375 1.32338,0.78865 -3.30602,1.03217 -20.01268,1.05308 l -21.73464,0.0276 v -13.1101 c 0,-6.98566 0.27271,-12.5741 0.61256,-12.71777 z m 24.99614,30.33742 c 24.10611,0.007 25.76018,0.10989 28.19103,1.79421 l 2.58233,1.78845 -28.19103,0.007 c -27.61876,0.007 -28.19102,-0.0311 -28.19102,-1.79538 0,-1.76073 0.5722,-1.80097 25.60869,-1.79421 z m -32.45515,7.2858 c 0.50043,0.02 0.82025,0.10443 0.82025,0.24434 0,0.24875 -6.43442,12.12982 -14.29971,26.40146 -7.86523,14.27169 -14.41888,26.08257 -14.56355,26.2488 -0.14478,0.16616 -0.71141,-0.57209 -1.25848,-1.64162 -0.87975,-1.71961 0.54537,-4.77559 12.31396,-26.41749 11.63262,-21.39209 13.59118,-24.50839 15.55813,-24.75749 0.30948,-0.0394 0.60522,-0.0647 0.87417,-0.0757 0.20176,-0.008 0.38848,-0.009 0.55523,0 z m 37.7999,0.0123 v 0 c 5.27761,0 10.54753,0.0346 14.53489,0.10208 l 14.49818,0.24669 -12.99195,23.6206 -12.99419,23.62065 -3.10543,0.0159 -3.10544,0.0182 -13.01944,-23.63892 -13.01832,-23.63898 14.61865,-0.24669 c 4.02007,-0.0677 9.30544,-0.10209 14.58305,-0.10209 z m -79.32354,0.0493 c 2.90308,0.008 6.08065,0.0276 9.39777,0.0608 l 24.12426,0.23976 -11.96519,22.00999 c -6.58067,12.1058 -12.09951,22.15266 -12.26574,22.32658 -0.35141,0.36751 -0.75335,-0.3325 -14.43621,-25.20606 -5.69094,-10.345 -10.17502,-18.98949 -9.96451,-19.20969 0.15723,-0.1654 6.40041,-0.24616 15.10962,-0.22137 z m 46.65506,2.28747 c 0.02,-0.007 0.0352,-2.3e-4 0.0458,0.0106 0.59324,0.67059 21.82845,39.01638 23.95446,43.25589 l 1.01642,2.02598 h -25.50778 -25.5089 l 1.91009,-3.37732 c 1.05097,-1.85741 6.77263,-12.20489 12.71313,-22.99312 5.75479,-10.45108 10.75828,-18.76423 11.37671,-18.92176 z m -67.41574,5.25183 c 3.5e-4,-1.2e-4 0,1.2e-4 0,0 -0.0118,0.006 -0.0229,0.0164 -0.0347,0.0358 0.0112,-0.0194 0.0217,-0.0311 0.0335,-0.0358 z m 66.83754,44.54192 c 27.3094,0 29.8384,0.24523 29.8384,2.88289 0,0.396 -13.37708,0.72045 -29.72715,0.72045 -29.46067,0 -29.71887,-0.0176 -28.80588,-1.80225 0.8922,-1.74435 1.8025,-1.80109 28.69463,-1.80109 z m 36.82706,4.46142 c 0.008,0.0423 0.0217,0.0771 0.0399,0.10555 -0.0188,-0.0288 -0.0317,-0.0631 -0.0399,-0.10555 z m -54.50756,2.8944 c 2.15756,-0.006 4.56709,-0.006 7.16193,0 3.45961,0.009 7.2478,0.0288 11.20573,0.0619 l 28.78526,0.23747 -14.26758,25.84845 c -7.84738,14.21748 -14.46729,26.06091 -14.71157,26.31653 -0.24434,0.25567 -6.94613,-11.30834 -14.89165,-25.69704 -7.94553,-14.38863 -14.2791,-26.33672 -14.0737,-26.55169 0.11548,-0.12094 4.31893,-0.19654 10.79158,-0.21562 z m 57.11168,3.01821 c 1.6573,0 22.30567,14.24848 21.65775,14.89511 -0.38067,0.3799 -13.9712,6.82572 -28.80587,15.78414 -14.83462,8.95849 -17.90517,11.75069 -18.15656,11.75069 4.97776,-9.68852 8.36783,-13.05468 11.78622,-19.24065 7.01549,-12.75389 13.09897,-23.18929 13.51846,-23.18929 z m -79.3488,1.33419 c 0.35623,0 4.7249,7.39422 9.70754,16.43347 4.98264,9.03913 9.91777,17.95456 10.96714,19.81197 -13.69907,-7.36733 -33.18171,-17.51216 -41.56957,-22.69597 -0.62536,-0.62161 19.31089,-13.54947 20.89489,-13.54947 z m 110.20356,21.34803 c 0.61767,-0.009 1.24756,-0.008 1.8906,0 -1.28602,-0.0206 -2.5203,0 -3.70771,0.0529 0.59405,-0.0276 1.19909,-0.0464 1.81711,-0.0552 z m 5.91496,0.18473 c 1.39698,0.10173 2.85223,0.24563 4.37079,0.43476 -1.51856,-0.18913 -2.97381,-0.33303 -4.37079,-0.43476 z m -14.34904,0.60797 c -1.53695,0.28041 -2.99543,0.62848 -4.39376,1.03364 1.39863,-0.40528 2.8564,-0.75323 4.39376,-1.03364 z m -132.37186,0.73309 c 1.35122,0.006 2.62568,0.0329 3.83388,0.0814 -1.2082,-0.0482 -2.48271,-0.0757 -3.83388,-0.0814 z m -2.0856,0.007 c -2.86039,0.0305 -6.04623,0.14672 -9.63871,0.34531 3.59201,-0.19859 6.77862,-0.31454 9.63871,-0.34531 z m 9.35531,0.28451 c 1.08526,0.0915 2.11397,0.20464 3.09627,0.33956 -0.9823,-0.13486 -2.01101,-0.2481 -3.09627,-0.33956 z m 117.98498,0.8925 c -0.8851,0.31811 -1.74928,0.65878 -2.59837,1.01872 0.84903,-0.35994 1.71333,-0.70061 2.59837,-1.01872 z m -3.86143,1.57277 c -2.08848,0.94648 -4.0996,2.00455 -6.12371,3.12723 2.02411,-1.12268 4.03529,-2.18075 6.12371,-3.12723 z"
     id="path1682-0-4-4-8"
     inkscape:connector-curvature="0" />
  <g
     aria-label="Fedily"
     transform="matrix(0.90603577,0,0,0.96059115,-1071.1032,-295.32707)"
     style="font-style:normal;font-variant:normal;font-weight:normal;font-stretch:normal;font-size:13.27999973px;line-height:1.25;font-family:FreeSerif;-inkscape-font-specification:'FreeSerif, Normal';font-variant-ligatures:normal;font-variant-caps:normal;font-variant-numeric:normal;font-feature-settings:normal;text-align:start;letter-spacing:0px;word-spacing:0px;writing-mode:lr-tb;text-anchor:start;fill:#502d16;fill-opacity:1;stroke:none"
     id="flowRoot1470-0">
    <path
       inkscape:connector-curvature="0"
       id="path67"
       style="font-style:normal;font-variant:normal;font-weight:normal;font-stretch:normal;font-size:85.33333588px;font-family:Nonchalance;-inkscape-font-specification:Nonchalance;font-variant-ligatures:normal;font-variant-caps:normal;font-variant-numeric:normal;font-feature-settings:normal;text-align:start;writing-mode:lr-tb;text-anchor:start;fill:#502d16"
       d="m 1798,538.40241 q -1.75,3.08333 -4.4583,5.79166 -7.8334,7.83334 -18.875,7.83334 -11.0417,0 -18.875,-7.79167 Q 1748,536.40241 1748,525.36074 v -25 h 3.3333 v 25 q 0,9.66667 6.8334,16.5 6.8333,6.83333 16.5,6.83333 9.6666,0 16.5,-6.83333 6.8333,-6.83333 6.8333,-16.5 v -25 h 3.3333 v 50.29167 q 0,7.16666 -3.5833,13.33333 l -2.875,-1.66667 Q 1798,556.90241 1798,550.65241 Z m -75,11.95833 v -60 h 3.3333 v 60 z m -21.6667,-50 v 50 H 1698 v -50 z m -1.6666,-12.5 q 1.0416,0 1.75,0.75 0.75,0.70833 0.75,1.75 0,1.04167 -0.75,1.79167 -0.7084,0.70833 -1.75,0.70833 -1.0417,0 -1.75,-0.70833 -0.75,-0.75 -0.75,-1.79167 0,-1.04167 0.75,-1.75 0.7083,-0.75 1.75,-0.75 z m -50,60.83333 q 9.6666,0 16.5,-6.83333 6.8333,-6.83333 6.8333,-16.5 0,-9.66667 -6.8333,-16.5 -6.8334,-6.83333 -16.5,-6.83333 -9.6667,0 -16.5,6.83333 -6.8334,6.83333 -6.8334,16.5 0,9.66667 6.8334,16.5 6.8333,6.83333 16.5,6.83333 z M 1673,490.36074 h 3.3333 v 35 q 0,11.04167 -7.8333,18.875 -7.7917,7.79167 -18.8333,7.79167 -11.0417,0 -18.875,-7.79167 -7.7917,-7.83333 -7.7917,-18.875 0,-11.04167 7.7917,-18.83333 7.8333,-7.83334 18.875,-7.83334 11.0416,0 18.875,7.79167 2.7083,2.75 4.4583,5.83333 z m -95,11.66667 q -8.75,0 -15.3333,5.75 -6.5417,5.70833 -7.75,14.25 h 46.1666 q -1.2083,-8.54167 -7.75,-14.25 -6.5833,-5.75 -15.3333,-5.75 z m 0,46.66666 q 8,0 14.3333,-4.91666 6.1667,-4.83334 8.2084,-12.375 l 3.2083,0.875 q -2.2917,8.625 -9.375,14.125 -7.2083,5.625 -16.375,5.625 -11.0417,0 -18.875,-7.79167 -7.7917,-7.83333 -7.7917,-18.875 0,-1.66667 0.2084,-3.33333 1.25,-9.91667 8.75,-16.58334 7.5833,-6.75 17.7083,-6.75 10.125,0 17.7083,6.75 7.5,6.66667 8.75,16.58334 0.2084,1.66666 0.2084,3.33333 h -50 q 0,9.66667 6.8333,16.5 6.8333,6.83333 16.5,6.83333 z m -46.6667,-39.625 4.7084,-2.70833 1.6666,2.875 -6.375,3.70833 v 37.41667 H 1528 v -35.5 l -4.7083,2.70833 -1.6667,-2.875 6.375,-3.66666 v -7.375 q 0,-5.54167 3.9167,-9.41667 3.9166,-3.91667 9.4166,-3.91667 v 3.33334 q -4.125,0 -7.0416,2.91666 -2.9584,2.91667 -2.9584,7.08334 z" />
  </g>
</svg>
